<svg width="13" height="7" viewBox="0 0 13 7" fill="none" xmlns="http://www.w3.org/2000/svg">
<path d="M12.072 1.07144C12.072 0.98215 12.0273 0.881703 11.9604 0.814739L11.4023 0.256703C11.3354 0.189739 11.2349 0.145097 11.1456 0.145097C11.0564 0.145097 10.9559 0.189739 10.889 0.256703L6.50279 4.64286L2.11663 0.256703C2.04967 0.189739 1.94922 0.145097 1.85993 0.145097C1.75949 0.145097 1.6702 0.189739 1.60324 0.256703L1.0452 0.814739C0.978237 0.881703 0.933594 0.98215 0.933594 1.07144C0.933594 1.16072 0.978237 1.26117 1.0452 1.32813L6.24609 6.52903C6.31306 6.59599 6.4135 6.64063 6.50279 6.64063C6.59208 6.64063 6.69252 6.59599 6.75949 6.52903L11.9604 1.32813C12.0273 1.26117 12.072 1.16072 12.072 1.07144Z" fill="#1E0E62"/>
</svg>
