<svg width="16" height="17" viewBox="0 0 16 17" fill="none" xmlns="http://www.w3.org/2000/svg">
<path d="M12.5357 0.857142H2.89286C1.29576 0.857142 0 2.1529 0 3.75V13.3929C0 14.99 1.29576 16.2857 2.89286 16.2857H8.23661V10.3092H6.22768V7.97879H8.23661V6.26116C8.23661 4.27232 9.46205 3.1875 11.24 3.1875C12.0837 3.1875 12.817 3.24777 13.0279 3.2779V5.35714L11.8025 5.36719C10.8281 5.36719 10.6473 5.8192 10.6473 6.49219V7.97879H12.9475L12.6462 10.3092H10.6473V16.2857H12.5357C14.1328 16.2857 15.4286 14.99 15.4286 13.3929V3.75C15.4286 2.1529 14.1328 0.857142 12.5357 0.857142Z" fill="#151439" fill-opacity="0.4"/>
</svg>
