<svg width="24" height="15" viewBox="0 0 24 15" fill="none" xmlns="http://www.w3.org/2000/svg">
<path d="M14.4342 7.74219C14.4342 7.26004 14.3839 6.88839 14.3136 6.51674H7.36272V9.04799H11.5413C11.3705 10.1228 10.2757 12.2221 7.36272 12.2221C4.85156 12.2221 2.80246 10.1429 2.80246 7.57143C2.80246 5 4.85156 2.92076 7.36272 2.92076C8.79911 2.92076 9.75335 3.53348 10.2958 4.0558L12.2946 2.13728C11.0089 0.931919 9.35156 0.208705 7.36272 0.208705C3.29464 0.208705 0 3.50335 0 7.57143C0 11.6395 3.29464 14.9342 7.36272 14.9342C11.6116 14.9342 14.4342 11.9509 14.4342 7.74219ZM23.1429 6.51674H21.0435V4.41741H18.9342V6.51674H16.8348V8.62612H18.9342V10.7254H21.0435V8.62612H23.1429V6.51674Z" fill="#151439" fill-opacity="0.4"/>
</svg>
