<svg width="17" height="13" viewBox="0 0 17 13" fill="none" xmlns="http://www.w3.org/2000/svg">
<path d="M16.2723 1.66964C15.6897 1.92076 15.0569 2.10156 14.404 2.17188C15.077 1.77009 15.5893 1.13728 15.8304 0.383928C15.2076 0.75558 14.5045 1.02679 13.7712 1.16741C13.1786 0.534598 12.3348 0.142857 11.4007 0.142857C9.60268 0.142857 8.15625 1.59933 8.15625 3.38728C8.15625 3.63839 8.18638 3.88951 8.23661 4.13058C5.54464 3.98995 3.14397 2.70424 1.54688 0.735491C1.26562 1.21763 1.10491 1.77009 1.10491 2.37277C1.10491 3.49777 1.67746 4.49219 2.55134 5.07478C2.01897 5.05469 1.51674 4.90402 1.08482 4.66295C1.08482 4.67299 1.08482 4.69308 1.08482 4.70312C1.08482 6.28013 2.19978 7.58594 3.68638 7.88728C3.41518 7.95759 3.12388 7.99777 2.83259 7.99777C2.62165 7.99777 2.42076 7.97768 2.21987 7.94754C2.6317 9.23326 3.82701 10.1674 5.25335 10.1975C4.13839 11.0714 2.74219 11.5837 1.22545 11.5837C0.954241 11.5837 0.703125 11.5737 0.441964 11.5435C1.87835 12.4676 3.58594 13 5.42411 13C11.3906 13 14.6551 8.05804 14.6551 3.76897C14.6551 3.62835 14.6551 3.48772 14.6451 3.3471C15.2779 2.88504 15.8304 2.3125 16.2723 1.66964Z" fill="#151439" fill-opacity="0.4"/>
</svg>
